<svg xmlns="http://www.w3.org/2000/svg" xmlns:xlink="http://www.w3.org/1999/xlink" width="40" zoomAndPan="magnify" viewBox="0 0 30 30.000001" height="40" preserveAspectRatio="xMidYMid meet" version="1.0"><defs><g/><clipPath id="071baecd9b"><path d="M 2.003906 0 L 28.859375 0 L 28.859375 26.855469 L 2.003906 26.855469 Z M 2.003906 0 " clip-rule="nonzero"/></clipPath><clipPath id="8181c040e3"><path d="M 0.484375 0 L 29.515625 0 L 29.515625 29.03125 L 0.484375 29.03125 Z M 0.484375 0 " clip-rule="nonzero"/></clipPath></defs><g clip-path="url(#071baecd9b)"><path fill="#000000" d="M 27.421875 5.359375 L 28.859375 0 L 23.5 1.4375 L 24.703125 2.640625 L 5.070312 22.273438 C 5.070312 22.273438 5.195312 22.417969 5.8125 23.046875 C 6.433594 23.675781 6.585938 23.789062 6.585938 23.789062 L 26.21875 4.15625 Z M 13.683594 9.5625 L 14.890625 10.769531 L 16.328125 5.410156 L 10.964844 6.847656 L 12.171875 8.050781 L 4.332031 15.890625 C 4.144531 14.882812 4.101562 13.871094 4.199219 12.855469 C 4.296875 11.835938 4.535156 10.851562 4.914062 9.898438 C 5.292969 8.949219 5.792969 8.070312 6.421875 7.261719 C 7.050781 6.453125 7.777344 5.75 8.605469 5.148438 C 9.433594 4.542969 10.328125 4.070312 11.289062 3.722656 C 12.25 3.375 13.242188 3.167969 14.261719 3.101562 C 15.285156 3.035156 16.292969 3.109375 17.292969 3.328125 C 18.292969 3.550781 19.242188 3.902344 20.140625 4.394531 L 21.707031 2.828125 C 21.109375 2.460938 20.484375 2.148438 19.832031 1.886719 C 19.183594 1.621094 18.515625 1.414062 17.832031 1.257812 C 17.148438 1.105469 16.457031 1.003906 15.753906 0.960938 C 15.054688 0.921875 14.355469 0.933594 13.660156 1.003906 C 12.960938 1.078125 12.273438 1.203125 11.597656 1.386719 C 10.917969 1.570312 10.261719 1.804688 9.621094 2.09375 C 8.984375 2.382812 8.371094 2.722656 7.789062 3.109375 C 7.203125 3.5 6.65625 3.933594 6.140625 4.410156 C 5.628906 4.886719 5.15625 5.402344 4.726562 5.957031 C 4.296875 6.511719 3.914062 7.097656 3.578125 7.710938 C 3.242188 8.328125 2.960938 8.96875 2.730469 9.628906 C 2.496094 10.292969 2.320312 10.96875 2.199219 11.660156 C 2.078125 12.351562 2.011719 13.046875 2.003906 13.746094 C 1.996094 14.449219 2.042969 15.148438 2.148438 15.839844 C 2.253906 16.535156 2.414062 17.214844 2.628906 17.882812 C 2.84375 18.550781 3.109375 19.195312 3.429688 19.820312 L 5.039062 18.210938 Z M 24.464844 8.722656 C 26.695312 12.824219 26.078125 18.078125 22.613281 21.546875 C 21.992188 22.167969 21.304688 22.707031 20.550781 23.160156 C 19.796875 23.613281 19 23.96875 18.160156 24.230469 C 17.320312 24.488281 16.460938 24.644531 15.582031 24.695312 C 14.703125 24.746094 13.832031 24.6875 12.96875 24.527344 L 15.800781 21.695312 L 17.007812 22.898438 L 18.441406 17.539062 L 13.082031 18.976562 L 14.289062 20.179688 L 9.039062 25.429688 C 9.664062 25.75 10.308594 26.015625 10.976562 26.230469 C 11.644531 26.445312 12.324219 26.605469 13.019531 26.710938 C 13.710938 26.816406 14.410156 26.863281 15.113281 26.855469 C 15.8125 26.847656 16.507812 26.78125 17.199219 26.660156 C 17.890625 26.539062 18.566406 26.363281 19.230469 26.132812 C 19.890625 25.898438 20.53125 25.617188 21.148438 25.28125 C 21.761719 24.945312 22.347656 24.5625 22.902344 24.132812 C 23.457031 23.703125 23.972656 23.234375 24.449219 22.71875 C 24.925781 22.207031 25.359375 21.65625 25.75 21.074219 C 26.136719 20.488281 26.476562 19.878906 26.765625 19.238281 C 27.054688 18.597656 27.292969 17.941406 27.472656 17.265625 C 27.65625 16.585938 27.78125 15.898438 27.855469 15.203125 C 27.925781 14.503906 27.9375 13.804688 27.898438 13.105469 C 27.855469 12.40625 27.753906 11.710938 27.601562 11.027344 C 27.445312 10.34375 27.238281 9.675781 26.972656 9.027344 C 26.710938 8.378906 26.398438 7.753906 26.035156 7.152344 Z M 24.464844 8.722656 " fill-opacity="1" fill-rule="nonzero"/></g><g clip-path="url(#8181c040e3)"><path stroke-linecap="butt" transform="matrix(0.886361, 0, 0, 0.886361, 1.211312, 11.079509)" fill="none" stroke-linejoin="miter" d="M 7.866192 11.024919 L 8.368597 10.985256 L 8.624207 11.011698 L 9.038472 10.998477 L 9.413072 10.936778 L 9.452736 10.610655 L 9.35578 10.306567 L 9.157462 9.812976 L 8.796083 9.121066 L 8.610986 8.627475 L 8.342155 8.147105 L 7.835342 6.935161 L 7.70313 6.732436 L 7.570918 6.481233 L 7.491591 6.18596 L 7.3726 5.987642 L 7.293273 5.771696 L 7.011221 5.282511 L 6.918672 5.000459 L 6.037259 3.145084 L 5.957932 2.885067 L 5.812499 2.642678 L 5.733172 2.40029 L 5.477562 1.937548 L 5.252801 1.695159 L 4.812095 1.562947 L 4.389016 1.70838 L 4.146628 1.937548 L 4.027637 2.162308 L 3.930681 2.426732 L 3.81169 2.616236 L 3.278435 3.841401 L 3.133002 4.044126 L 3.066896 4.30855 L 2.917056 4.56416 L 2.837729 4.802141 L 1.480352 7.653513 L 1.401025 7.948787 L 1.264406 8.147105 L 1.171858 8.411529 L 0.933876 8.839014 L 0.731151 9.372269 L 0.585718 9.561773 L 0.519612 9.799755 L 0.255188 10.33301 L 0.171453 10.601841 L 0.241966 10.936778 L 0.50639 11.011698 L 1.026424 10.985256 L 1.290848 11.011698 L 2.04005 10.985256 L 2.348544 10.892707 L 2.599747 10.654726 L 2.837729 10.214019 L 3.093339 9.962816 L 3.370984 9.812976 L 3.626594 9.852639 L 4.186291 9.799755 L 4.424273 9.839418 L 5.733172 9.830604 L 5.971153 9.852639 L 6.266427 9.812976 L 6.557293 9.962816 L 6.812903 10.174355 L 6.931894 10.425558 L 7.011221 10.667947 L 7.275645 10.866265 L 7.58414 10.998477 Z M 4.838537 7.706398 L 4.574113 7.653513 L 4.265618 7.679956 L 4.049672 7.587407 L 4.040858 7.336204 L 4.666661 5.895094 L 4.812095 5.771696 L 4.997191 5.881872 L 5.627402 7.349426 L 5.57011 7.587407 L 5.371792 7.693177 Z M 11.581349 11.03814 L 11.85018 10.998477 L 12.370214 11.024919 L 12.66108 10.985256 L 13.088566 11.011698 L 13.463166 10.853044 L 13.621821 10.610655 L 13.582157 9.213615 L 13.621821 8.799351 L 13.6086 8.521705 L 13.635042 8.041335 L 13.6086 7.750469 L 13.6086 7.226028 L 13.72759 7.107037 L 13.859802 7.159922 L 14.075749 7.336204 L 14.234403 7.534522 L 14.780879 8.080999 L 14.952755 8.296945 L 15.314134 8.640696 L 15.596187 8.839014 L 15.887053 8.856642 L 16.155884 8.653917 L 16.340981 8.455599 L 16.499635 8.296945 L 16.874236 7.851831 L 17.059333 7.719619 L 17.605809 7.159922 L 17.782092 7.080595 L 17.887861 7.278913 L 17.861419 8.010486 L 17.901083 8.548148 L 17.87464 9.068182 L 17.901083 9.561773 L 17.87464 9.799755 L 17.901083 10.399116 L 17.901083 10.601841 L 18.006852 10.905928 L 18.284497 10.985256 L 19.901891 11.03814 L 20.179536 10.892707 L 20.33819 10.504885 L 20.302934 9.812976 L 20.324969 9.548552 L 20.302934 5.546935 L 20.324969 5.256069 L 20.316155 3.933949 L 20.324969 3.682746 L 20.302934 3.109828 L 20.316155 2.885067 L 20.302934 2.338591 L 20.324969 2.082981 L 20.166315 1.800929 L 19.88867 1.655496 L 19.500848 1.778893 L 19.218795 1.950769 L 18.659098 2.536909 L 18.487222 2.748448 L 18.328568 2.898288 L 18.139064 3.13627 L 16.966784 4.334992 L 16.794909 4.56416 L 15.984009 5.388281 L 15.74162 5.546935 L 15.463975 5.441166 L 15.300913 5.211998 L 15.111409 5.026902 L 14.877835 4.722814 L 14.582561 4.453983 L 13.370618 3.109828 L 13.185521 2.946766 L 12.837363 2.536909 L 12.621417 2.351812 L 12.277666 1.990433 L 11.969171 1.761265 L 11.59457 1.655496 L 11.303704 1.792115 L 11.158271 2.06976 L 11.193527 2.885067 L 11.158271 3.400694 L 11.180306 3.643083 L 11.167085 5.771696 L 11.193527 6.040527 L 11.158271 7.389089 L 11.180306 7.640292 L 11.167085 10.58862 L 11.316925 10.866265 Z M 22.189158 10.637097 L 22.24645 10.91915 L 22.510874 11.03814 L 25.445981 11.051362 L 25.736847 10.998477 L 25.992457 11.011698 L 26.217217 11.051362 L 26.494863 11.024919 L 26.776915 11.024919 L 27.041339 10.985256 L 27.296949 11.03814 L 27.587815 11.011698 L 28.936377 11.011698 L 29.178766 10.985256 L 29.44319 10.853044 L 29.579809 10.623876 L 29.562181 10.359452 L 29.59303 10.0774 L 29.59303 9.517702 L 29.562181 9.279721 L 29.456411 9.028518 L 29.178766 8.896306 L 28.870271 8.883085 L 28.588219 8.896306 L 28.337016 8.869864 L 26.966419 8.856642 L 26.72403 8.883085 L 26.441978 8.869864 L 26.177554 8.883085 L 25.948386 8.746466 L 25.921944 8.521705 L 26.080598 8.323387 L 26.217217 8.080999 L 26.322987 7.798946 L 26.455199 7.587407 L 26.591818 7.322983 L 26.790136 7.014489 L 27.363055 5.934757 L 27.526116 5.709997 L 27.922752 4.947574 L 28.04615 4.775699 L 28.284132 4.255665 L 28.442786 4.030904 L 29.482854 2.096202 L 29.390305 1.800929 L 29.121474 1.70838 L 28.870271 1.681938 L 28.085814 1.70838 L 27.737655 1.668717 L 25.763289 1.681938 L 25.498865 1.642274 L 25.216813 1.681938 L 24.176745 1.681938 L 23.8991 1.655496 L 23.656712 1.681938 L 23.097014 1.681938 L 22.845811 1.655496 L 22.634272 1.792115 L 22.457989 2.06976 L 22.484432 2.351812 L 22.471211 3.444765 L 22.616644 3.695967 L 23.017687 3.801737 L 23.405509 3.801737 L 23.669933 3.841401 L 23.925543 3.801737 L 25.520901 3.814958 L 25.697183 3.933949 L 25.670741 4.189559 L 24.031312 7.226028 L 23.868251 7.468416 L 23.630269 7.948787 L 23.471615 8.160326 L 23.233633 8.667139 L 22.951581 9.107845 L 22.603423 9.812976 L 22.431547 10.050957 L 22.299335 10.319789 Z M 22.189158 10.637097 " stroke="#ffffff" stroke-width="2.449994" stroke-opacity="1" stroke-miterlimit="4"/></g><g fill="#000000" fill-opacity="1"><g transform="translate(1.211312, 20.829475)"><g><path d="M 6.972656 0.0234375 L 7.421875 -0.0117188 L 7.644531 0.0117188 L 8.011719 0 L 8.339844 -0.0585938 L 8.378906 -0.34375 L 8.292969 -0.613281 L 8.117188 -1.050781 L 7.796875 -1.664062 L 7.632812 -2.101562 L 7.394531 -2.527344 L 6.949219 -3.605469 L 6.828125 -3.78125 L 6.710938 -4.003906 L 6.640625 -4.265625 L 6.535156 -4.441406 L 6.464844 -4.632812 L 6.214844 -5.070312 L 6.132812 -5.316406 L 5.351562 -6.960938 L 5.28125 -7.195312 L 5.152344 -7.40625 L 5.082031 -7.621094 L 4.855469 -8.035156 L 4.65625 -8.246094 L 4.265625 -8.363281 L 3.886719 -8.234375 L 3.675781 -8.035156 L 3.566406 -7.832031 L 3.484375 -7.597656 L 3.378906 -7.433594 L 2.90625 -6.34375 L 2.777344 -6.167969 L 2.71875 -5.929688 L 2.585938 -5.707031 L 2.515625 -5.492188 L 1.3125 -2.964844 L 1.242188 -2.707031 L 1.121094 -2.527344 L 1.039062 -2.292969 L 0.828125 -1.914062 L 0.648438 -1.441406 L 0.519531 -1.277344 L 0.460938 -1.0625 L 0.222656 -0.589844 L 0.152344 -0.355469 L 0.210938 -0.0585938 L 0.449219 0.0117188 L 0.910156 -0.0117188 L 1.144531 0.0117188 L 1.808594 -0.0117188 L 2.078125 -0.09375 L 2.304688 -0.308594 L 2.515625 -0.695312 L 2.742188 -0.921875 L 2.988281 -1.050781 L 3.214844 -1.015625 L 3.710938 -1.0625 L 3.921875 -1.027344 L 5.082031 -1.039062 L 5.292969 -1.015625 L 5.554688 -1.050781 L 5.8125 -0.921875 L 6.039062 -0.734375 L 6.144531 -0.507812 L 6.214844 -0.296875 L 6.449219 -0.117188 L 6.722656 0 Z M 4.289062 -2.917969 L 4.050781 -2.964844 L 3.78125 -2.941406 L 3.59375 -3.023438 L 3.578125 -3.25 L 4.136719 -4.523438 L 4.265625 -4.632812 L 4.429688 -4.535156 L 4.984375 -3.238281 L 4.9375 -3.023438 L 4.761719 -2.929688 Z M 4.289062 -2.917969 "/></g></g></g><g fill="#000000" fill-opacity="1"><g transform="translate(10.2488, 20.829475)"><g><path d="M 1.230469 0.0351562 L 1.464844 0 L 1.925781 0.0234375 L 2.1875 -0.0117188 L 2.5625 0.0117188 L 2.894531 -0.128906 L 3.035156 -0.34375 L 3 -1.582031 L 3.035156 -1.949219 L 3.023438 -2.199219 L 3.046875 -2.621094 L 3.023438 -2.882812 L 3.023438 -3.34375 L 3.132812 -3.449219 L 3.25 -3.402344 L 3.4375 -3.25 L 3.578125 -3.070312 L 4.0625 -2.585938 L 4.21875 -2.398438 L 4.535156 -2.089844 L 4.785156 -1.914062 L 5.046875 -1.902344 L 5.28125 -2.078125 L 5.445312 -2.257812 L 5.589844 -2.398438 L 5.917969 -2.789062 L 6.085938 -2.90625 L 6.570312 -3.402344 L 6.722656 -3.472656 L 6.816406 -3.296875 L 6.792969 -2.648438 L 6.828125 -2.175781 L 6.804688 -1.714844 L 6.828125 -1.277344 L 6.804688 -1.0625 L 6.828125 -0.53125 L 6.828125 -0.355469 L 6.921875 -0.0820312 L 7.171875 -0.0117188 L 8.601562 0.0351562 L 8.847656 -0.09375 L 8.992188 -0.4375 L 8.957031 -1.050781 L 8.980469 -1.289062 L 8.957031 -4.832031 L 8.980469 -5.09375 L 8.96875 -6.261719 L 8.980469 -6.488281 L 8.957031 -6.996094 L 8.96875 -7.195312 L 8.957031 -7.679688 L 8.980469 -7.90625 L 8.835938 -8.152344 L 8.589844 -8.28125 L 8.246094 -8.175781 L 8 -8.023438 L 7.503906 -7.503906 L 7.347656 -7.3125 L 7.207031 -7.183594 L 7.042969 -6.972656 L 6.003906 -5.90625 L 5.847656 -5.707031 L 5.128906 -4.972656 L 4.914062 -4.832031 L 4.667969 -4.925781 L 4.523438 -5.128906 L 4.359375 -5.292969 L 4.148438 -5.566406 L 3.886719 -5.800781 L 2.8125 -6.996094 L 2.648438 -7.136719 L 2.339844 -7.503906 L 2.148438 -7.667969 L 1.84375 -7.988281 L 1.570312 -8.1875 L 1.242188 -8.28125 L 0.980469 -8.164062 L 0.851562 -7.917969 L 0.886719 -7.195312 L 0.851562 -6.734375 L 0.875 -6.523438 L 0.863281 -4.632812 L 0.886719 -4.394531 L 0.851562 -3.203125 L 0.875 -2.976562 L 0.863281 -0.367188 L 0.992188 -0.117188 Z M 1.230469 0.0351562 "/></g></g></g><g fill="#000000" fill-opacity="1"><g transform="translate(20.585778, 20.829475)"><g><path d="M 0.296875 -0.320312 L 0.34375 -0.0703125 L 0.578125 0.0351562 L 3.179688 0.046875 L 3.4375 0 L 3.664062 0.0117188 L 3.863281 0.046875 L 4.113281 0.0234375 L 4.359375 0.0234375 L 4.597656 -0.0117188 L 4.820312 0.0351562 L 5.082031 0.0117188 L 6.273438 0.0117188 L 6.488281 -0.0117188 L 6.722656 -0.128906 L 6.839844 -0.332031 L 6.828125 -0.566406 L 6.851562 -0.816406 L 6.851562 -1.3125 L 6.828125 -1.523438 L 6.734375 -1.75 L 6.488281 -1.867188 L 6.214844 -1.878906 L 5.964844 -1.867188 L 5.742188 -1.890625 L 4.523438 -1.902344 L 4.3125 -1.878906 L 4.0625 -1.890625 L 3.828125 -1.878906 L 3.628906 -1.996094 L 3.605469 -2.199219 L 3.746094 -2.375 L 3.863281 -2.585938 L 3.957031 -2.835938 L 4.078125 -3.023438 L 4.195312 -3.261719 L 4.371094 -3.53125 L 4.878906 -4.488281 L 5.019531 -4.691406 L 5.375 -5.363281 L 5.480469 -5.519531 L 5.695312 -5.976562 L 5.835938 -6.179688 L 6.757812 -7.890625 L 6.675781 -8.152344 L 6.4375 -8.234375 L 6.214844 -8.257812 L 5.519531 -8.234375 L 5.210938 -8.269531 L 3.460938 -8.257812 L 3.226562 -8.292969 L 2.976562 -8.257812 L 2.054688 -8.257812 L 1.808594 -8.28125 L 1.59375 -8.257812 L 1.097656 -8.257812 L 0.875 -8.28125 L 0.683594 -8.164062 L 0.53125 -7.917969 L 0.554688 -7.667969 L 0.542969 -6.699219 L 0.671875 -6.476562 L 1.027344 -6.378906 L 1.371094 -6.378906 L 1.605469 -6.34375 L 1.832031 -6.378906 L 3.25 -6.367188 L 3.402344 -6.261719 L 3.378906 -6.039062 L 1.925781 -3.34375 L 1.785156 -3.132812 L 1.570312 -2.707031 L 1.429688 -2.515625 L 1.21875 -2.066406 L 0.96875 -1.679688 L 0.660156 -1.050781 L 0.507812 -0.839844 L 0.390625 -0.601562 Z M 0.296875 -0.320312 "/></g></g></g></svg>